<svg width="9" height="14" viewBox="0 0 9 14" fill="none" xmlns="http://www.w3.org/2000/svg">
<path d="M0.271641 7.46V6.46H3.85164C4.51831 6.46 5.08497 6.41333 5.55164 6.32C6.03164 6.21333 6.41831 6.04667 6.71164 5.82C7.01831 5.59333 7.24497 5.3 7.39164 4.94C7.53831 4.58 7.61164 4.14 7.61164 3.62C7.61164 3.15333 7.53831 2.75333 7.39164 2.42C7.25831 2.08667 7.03831 1.81333 6.73164 1.6C6.43831 1.38667 6.04497 1.23333 5.55164 1.14C5.07164 1.03333 4.48497 0.98 3.79164 0.98H2.63164V-9.53674e-07H3.89164C4.71831 -9.53674e-07 5.43164 0.0733326 6.03164 0.22C6.63164 0.366666 7.13164 0.593333 7.53164 0.899999C7.93164 1.19333 8.22497 1.57333 8.41164 2.04C8.61164 2.49333 8.71164 3.03333 8.71164 3.66C8.71164 4.3 8.61164 4.86 8.41164 5.34C8.21164 5.80667 7.91164 6.2 7.51164 6.52C7.11164 6.82667 6.60497 7.06 5.99164 7.22C5.37831 7.38 4.65164 7.46 3.81164 7.46H0.271641ZM0.271641 10.12V9.14H7.65164V10.12H0.271641ZM2.31164 14V-9.53674e-07H3.43164V14H2.31164Z" fill="black"/>
</svg>