<svg width="170" height="170" viewBox="0 0 170 170" fill="none" xmlns="http://www.w3.org/2000/svg">
<path d="M0 5.66666C0 2.53705 2.53705 0 5.66667 0H82.6933C84.9534 0 86.9974 1.34304 87.8945 3.4175L109.083 52.4167L122.92 91.159C123.138 91.7707 123.25 92.4154 123.25 93.0649V131.658C123.25 137.247 130.483 139.461 133.612 134.831L152.694 106.589C155.237 102.826 152.541 97.75 147.999 97.75H22.0152C17.2108 97.75 14.5863 103.354 17.662 107.044L45.3333 140.25L1.33217 87.9986C0.471812 86.977 0 85.6842 0 84.3485V5.66666Z" fill="white"/>
<circle cx="85" cy="85" r="85" fill="white"/>
<path d="M22.95 97.78H28.5033C30.94 93.1333 31.45 85.4267 31.45 66.84H80.4667V97.78H87.2667V116.367H72.1367V109H38.08V116.367H22.95V97.78ZM43.4067 97.78H64.3733V78.06H45.9567C45.9567 86.5033 45.22 94.21 43.4067 97.78ZM90.0734 109V66.84H141.923V76.7567H106.167V81.8H124.64C141.697 81.8 145.947 87.41 145.947 94.8333V95.3433C145.947 102.88 141.697 109 124.64 109H90.0734ZM106.167 98.8H122.883C127.927 98.8 129.287 97.0433 129.287 95.06V94.89C129.287 92.85 127.927 91.32 122.883 91.32H106.167V98.8Z" fill="#0C73FE"/>
</svg>
